<svg width="1024" height="1024" viewBox="0 0 1024 1024" fill="none" xmlns="http://www.w3.org/2000/svg">
<rect width="1024" height="1024" fill="#282C34"/>
<rect x="256" y="256" width="512" height="512" rx="50" fill="white"/>
<rect x="327" y="301" width="56" height="422" fill="#FE5757"/>
<rect x="640" y="301" width="56" height="422" fill="#FE5757"/>
<rect x="639.981" y="301.012" width="56" height="431.491" transform="rotate(21.4835 639.981 301.012)" fill="#FE5757"/>
<rect x="331" y="321.506" width="56" height="431.491" transform="rotate(-21.48 331 321.506)" fill="#FE5757"/>
<path d="M324.727 912.055C324.284 918.174 322.018 922.992 317.93 926.508C313.867 930.023 308.503 931.781 301.836 931.781C294.544 931.781 288.802 929.333 284.609 924.438C280.443 919.516 278.359 912.771 278.359 904.203V900.727C278.359 895.258 279.323 890.44 281.25 886.273C283.177 882.107 285.924 878.917 289.492 876.703C293.086 874.464 297.253 873.344 301.992 873.344C308.555 873.344 313.841 875.102 317.852 878.617C321.862 882.133 324.18 887.068 324.805 893.422H313.086C312.799 889.75 311.771 887.094 310 885.453C308.255 883.786 305.586 882.953 301.992 882.953C298.086 882.953 295.156 884.359 293.203 887.172C291.276 889.958 290.286 894.294 290.234 900.18V904.477C290.234 910.622 291.159 915.115 293.008 917.953C294.883 920.792 297.826 922.211 301.836 922.211C305.456 922.211 308.151 921.391 309.922 919.75C311.719 918.083 312.747 915.518 313.008 912.055H324.727ZM379.141 903.852C379.141 909.451 378.151 914.359 376.172 918.578C374.193 922.797 371.354 926.052 367.656 928.344C363.984 930.635 359.766 931.781 355 931.781C350.286 931.781 346.081 930.648 342.383 928.383C338.685 926.117 335.82 922.888 333.789 918.695C331.758 914.477 330.729 909.633 330.703 904.164V901.352C330.703 895.753 331.706 890.831 333.711 886.586C335.742 882.315 338.594 879.047 342.266 876.781C345.964 874.49 350.182 873.344 354.922 873.344C359.661 873.344 363.867 874.49 367.539 876.781C371.237 879.047 374.089 882.315 376.094 886.586C378.125 890.831 379.141 895.74 379.141 901.312V903.852ZM367.266 901.273C367.266 895.31 366.198 890.779 364.062 887.68C361.927 884.581 358.88 883.031 354.922 883.031C350.99 883.031 347.956 884.568 345.82 887.641C343.685 890.688 342.604 895.167 342.578 901.078V903.852C342.578 909.659 343.646 914.164 345.781 917.367C347.917 920.57 350.99 922.172 355 922.172C358.932 922.172 361.953 920.635 364.062 917.562C366.172 914.464 367.24 909.958 367.266 904.047V901.273ZM402.969 874.125L417.578 915.375L432.109 874.125H447.5V931H435.742V915.453L436.914 888.617L421.562 931H413.516L398.203 888.656L399.375 915.453V931H387.656V874.125H402.969ZM473.047 874.125L487.656 915.375L502.188 874.125H517.578V931H505.82V915.453L506.992 888.617L491.641 931H483.594L468.281 888.656L469.453 915.453V931H457.734V874.125H473.047ZM570.859 874.125V911.586C570.859 917.81 568.906 922.732 565 926.352C561.12 929.971 555.807 931.781 549.062 931.781C542.422 931.781 537.148 930.023 533.242 926.508C529.336 922.992 527.344 918.161 527.266 912.016V874.125H538.984V911.664C538.984 915.388 539.87 918.109 541.641 919.828C543.438 921.521 545.911 922.367 549.062 922.367C555.651 922.367 558.997 918.904 559.102 911.977V874.125H570.859ZM626.719 931H615L592.188 893.578V931H580.469V874.125H592.188L615.039 911.625V874.125H626.719V931ZM649.414 931H637.695V874.125H649.414V931ZM701.953 883.617H684.531V931H672.812V883.617H655.625V874.125H701.953V883.617ZM728.906 899.75L740.742 874.125H753.555L734.883 910.375V931H722.969V910.375L704.297 874.125H717.148L728.906 899.75Z" fill="white"/>
</svg>
